<svg width="755" height="933" viewBox="0 0 755 933" fill="none" xmlns="http://www.w3.org/2000/svg">
<!--<rect width="755" height="933" fill="#F5F5F5"/>-->
<path d="M207.939 488.28C268.293 466.102 337.103 460.094 406.183 470.969C475.262 481.844 541.704 509.145 597.605 549.624C653.505 590.103 696.511 642.057 721.506 699.304C746.501 756.552 752.433 816.684 738.597 872.546L594.505 832.266C602.708 799.146 599.191 763.496 584.372 729.555C569.553 695.615 544.056 664.813 510.914 640.814C477.772 616.815 438.38 600.629 397.425 594.181C356.469 587.734 315.673 591.296 279.891 604.445L207.939 488.28Z" fill="#3A454B"/>
<path d="M713.799 682.939C734.768 724.394 745.703 768.081 745.888 811.136C746.074 854.191 735.505 895.644 714.874 932.777L580.44 867.975C592.671 845.96 598.937 821.384 598.827 795.857C598.718 770.331 592.234 744.43 579.802 719.853L713.799 682.939Z" fill="#FF5100"/>
<rect x="8.42188" y="773.559" width="922.47" height="124.697" transform="rotate(-51.6931 8.42188 773.559)" fill="#FF5100"/>
<path d="M225.219 280.966C224.346 220.81 213.609 161.205 193.436 104.526L82.3378 144.067C98.1855 188.594 106.62 235.419 107.306 282.677L225.219 280.966Z" fill="#FF5100"/>
<path d="M569.015 182.043C437.789 233.175 292.602 235.679 159.692 189.103L179.204 133.423C298.823 175.341 429.492 173.087 547.594 127.069L569.015 182.043Z" fill="#FF5100"/>
<path d="M197.029 260.944C197.42 191.769 184.757 123.141 159.705 58.661L43.3917 103.851C62.7596 153.702 72.5494 206.759 72.2476 260.239L197.029 260.944Z" fill="#3A454B"/>
<rect x="0.968262" y="736.545" width="898.326" height="128.075" transform="rotate(-51.6931 0.968262 736.545)" fill="#3A454B"/>
<path d="M658.336 111.11C565.017 166.661 458.175 195.377 349.58 194.095C240.985 192.812 134.851 161.581 42.8689 103.842L107.896 0.250474C180.809 46.0203 264.941 70.777 351.024 71.7937C437.107 72.8104 521.8 50.0475 595.774 6.0125L658.336 111.11Z" fill="#3A454B"/>
<path d="M587.16 738.072C567.985 679.911 563.326 617.942 573.59 557.568C583.854 497.194 608.728 440.246 646.045 391.688L754.642 475.146C730.936 505.993 715.135 542.169 708.615 580.522C702.095 618.875 705.054 658.241 717.235 695.188L587.16 738.072Z" fill="#FF5100"/>
</svg>
