<svg width="372" height="342" viewBox="0 0 372 342" fill="none" xmlns="http://www.w3.org/2000/svg">
<g opacity="0.15" filter="url(#filter0_f_37_26)">
<ellipse cx="91" cy="19" rx="91" ry="19" transform="matrix(-1 4.32454e-09 4.32454e-09 1 277.651 283.118)" fill="black"/>
</g>
<mask id="path-2-outside-1_37_26" maskUnits="userSpaceOnUse" x="72.0431" y="6.71567" width="246.749" height="262.972" fill="black">
<rect fill="white" x="72.0431" y="6.71567" width="246.749" height="262.972"/>
<path fill-rule="evenodd" clip-rule="evenodd" d="M110.191 39.9089L81.7127 201.417C80.8809 206.135 82.5805 210.145 84.4677 212.899C86.3281 215.613 88.8567 217.873 91.4029 219.741C96.5297 223.503 103.627 227.045 111.764 230.298C128.193 236.868 150.929 243.069 176.143 247.515C201.356 251.961 224.842 253.909 242.527 253.356C251.286 253.081 259.167 252.181 265.271 250.399C268.303 249.514 271.452 248.256 274.128 246.341C276.843 244.399 279.812 241.212 280.644 236.494L309.122 74.9858C309.954 70.2682 308.254 66.2582 306.367 63.5043C304.507 60.7898 301.978 58.5306 299.432 56.6622C294.305 52.8999 287.208 49.3583 279.071 46.1049C262.642 39.5357 239.906 33.3338 214.692 28.888C189.479 24.4421 165.993 22.4939 148.307 23.0477C139.549 23.3219 131.668 24.2226 125.564 26.0045C122.532 26.8895 119.383 28.1475 116.707 30.0621C113.991 32.0044 111.023 35.1912 110.191 39.9089Z"/>
</mask>
<path fill-rule="evenodd" clip-rule="evenodd" d="M110.191 39.9089L81.7127 201.417C80.8809 206.135 82.5805 210.145 84.4677 212.899C86.3281 215.613 88.8567 217.873 91.4029 219.741C96.5297 223.503 103.627 227.045 111.764 230.298C128.193 236.868 150.929 243.069 176.143 247.515C201.356 251.961 224.842 253.909 242.527 253.356C251.286 253.081 259.167 252.181 265.271 250.399C268.303 249.514 271.452 248.256 274.128 246.341C276.843 244.399 279.812 241.212 280.644 236.494L309.122 74.9858C309.954 70.2682 308.254 66.2582 306.367 63.5043C304.507 60.7898 301.978 58.5306 299.432 56.6622C294.305 52.8999 287.208 49.3583 279.071 46.1049C262.642 39.5357 239.906 33.3338 214.692 28.888C189.479 24.4421 165.993 22.4939 148.307 23.0477C139.549 23.3219 131.668 24.2226 125.564 26.0045C122.532 26.8895 119.383 28.1475 116.707 30.0621C113.991 32.0044 111.023 35.1912 110.191 39.9089Z" fill="#7FCDE5" fill-opacity="0.25"/>
<path d="M84.4677 212.899L81.1682 215.16L81.1682 215.16L84.4677 212.899ZM91.4029 219.741L89.0363 222.966L89.0363 222.966L91.4029 219.741ZM111.764 230.298L113.249 226.584L113.249 226.584L111.764 230.298ZM242.527 253.356L242.402 249.358L242.402 249.358L242.527 253.356ZM265.271 250.399L266.392 254.238L266.392 254.238L265.271 250.399ZM274.128 246.341L276.455 249.594L276.455 249.595L274.128 246.341ZM280.644 236.494L284.583 237.189L280.644 236.494ZM306.367 63.5043L303.068 65.7655L303.068 65.7655L306.367 63.5043ZM299.432 56.6622L297.066 59.887L297.066 59.887L299.432 56.6622ZM279.071 46.1049L280.556 42.3908L279.071 46.1049ZM148.307 23.0477L148.433 27.0457L148.433 27.0457L148.307 23.0477ZM125.564 26.0045L126.685 29.8443L126.685 29.8443L125.564 26.0045ZM116.707 30.0621L114.38 26.8087L114.38 26.8087L116.707 30.0621ZM114.13 40.6035L85.652 202.112L77.7735 200.723L106.252 39.2143L114.13 40.6035ZM81.1682 215.16C78.9245 211.886 76.6985 206.82 77.7735 200.723L85.652 202.112C85.0633 205.451 86.2364 208.404 87.7673 210.638L81.1682 215.16ZM89.0363 222.966C86.299 220.957 83.3807 218.389 81.1682 215.16L87.7673 210.638C89.2754 212.838 91.4145 214.788 93.7694 216.516L89.0363 222.966ZM110.279 234.012C102.01 230.707 94.5576 227.018 89.0363 222.966L93.7694 216.516C98.5019 219.989 105.243 223.383 113.249 226.584L110.279 234.012ZM175.448 251.455C150.048 246.976 127.032 240.711 110.279 234.012L113.249 226.584C129.355 233.024 151.81 239.163 176.837 243.576L175.448 251.455ZM242.653 257.354C224.619 257.918 200.848 255.933 175.448 251.455L176.837 243.576C201.864 247.989 225.065 249.9 242.402 249.358L242.653 257.354ZM266.392 254.238C259.818 256.157 251.553 257.075 242.653 257.354L242.402 249.358C251.02 249.088 258.515 248.204 264.15 246.559L266.392 254.238ZM276.455 249.595C273.272 251.871 269.651 253.287 266.392 254.238L264.15 246.559C266.954 245.74 269.631 244.64 271.801 243.088L276.455 249.595ZM284.583 237.189C283.508 243.286 279.683 247.285 276.455 249.594L271.801 243.088C274.003 241.512 276.116 239.138 276.705 235.8L284.583 237.189ZM276.705 235.8L305.183 74.2913L313.061 75.6804L284.583 237.189L276.705 235.8ZM309.667 61.2431C311.91 64.5171 314.136 69.5837 313.061 75.6804L305.183 74.2913C305.772 70.9526 304.598 67.9993 303.068 65.7655L309.667 61.2431ZM301.799 53.4373C304.536 55.4461 307.454 58.0147 309.667 61.2431L303.068 65.7655C301.559 63.5648 299.42 61.6151 297.066 59.887L301.799 53.4373ZM280.556 42.3908C288.824 45.6967 296.277 49.3856 301.799 53.4373L297.066 59.887C292.333 56.4141 285.592 53.0199 277.586 49.819L280.556 42.3908ZM215.387 24.9487C240.787 29.4275 263.803 35.6922 280.556 42.3908L277.586 49.819C261.48 43.3792 239.025 37.2401 213.998 32.8272L215.387 24.9487ZM148.182 19.0496C166.216 18.485 189.987 20.47 215.387 24.9487L213.998 32.8272C188.971 28.4142 165.77 26.5029 148.433 27.0457L148.182 19.0496ZM124.443 22.1647C131.017 20.2458 139.282 19.3283 148.182 19.0496L148.433 27.0457C139.815 27.3155 132.32 28.1994 126.685 29.8443L124.443 22.1647ZM114.38 26.8087C117.563 24.5317 121.184 23.1162 124.443 22.1647L126.685 29.8443C123.881 30.6627 121.204 31.7633 119.034 33.3154L114.38 26.8087ZM106.252 39.2143C107.327 33.1176 111.152 29.1179 114.38 26.8087L119.034 33.3154C116.831 34.8909 114.719 37.2649 114.13 40.6035L106.252 39.2143Z" fill="#7FCDE5" mask="url(#path-2-outside-1_37_26)"/>
<mask id="mask0_37_26" style="mask-type:alpha" maskUnits="userSpaceOnUse" x="80" y="28" width="229" height="226">
<path fill-rule="evenodd" clip-rule="evenodd" d="M207.357 75.1587C157.863 66.4315 119.372 50.0975 121.386 38.6758C123.4 27.254 165.156 25.0696 214.651 33.7968C264.145 42.524 302.635 58.858 300.621 70.2797C298.607 81.7015 256.852 83.8859 207.357 75.1587ZM139.374 68.7139C155.803 75.2831 178.539 81.485 203.753 85.9308C228.966 90.3767 252.452 92.3249 270.138 91.7711C278.896 91.4969 286.777 90.5962 292.881 88.8143C295.913 87.9293 299.062 86.6713 301.738 84.7567C303.43 83.5463 305.221 81.8525 306.531 79.6061L308.254 79.9099L279.081 245.358C279.081 245.358 265.934 262.332 176.316 246.53C86.6987 230.728 80.1499 210.281 80.1499 210.281L109.323 44.8329L109.335 44.8351C109.798 47.3943 110.902 49.5983 112.078 51.3145C113.938 54.029 116.467 56.2882 119.013 58.1566C124.14 61.9189 131.237 65.4605 139.374 68.7139Z" fill="#7FCDE5"/>
</mask>
<g mask="url(#mask0_37_26)">
<path d="M269.14 46.8686L310.78 43.9472L267.869 222.564C267.869 222.564 263.503 227.761 254.981 229.431C246.458 231.1 224.221 231.115 224.221 231.115L269.14 46.8686Z" fill="#AC6D46"/>
<path d="M255.127 46.2724L261 47.5L216.768 230.777L210.895 229.549L255.127 46.2724Z" fill="#AC6D46"/>
</g>
<path opacity="0.8" d="M267.84 224.247C272.337 203.547 283.233 150.195 287.263 134.253C288.392 127.851 279.006 120.612 251.432 115.749C223.857 110.887 185.133 120.306 161.498 116.138C137.862 111.971 127.026 84.1668 127.981 78.7503C129.197 71.8567 135.713 69.4517 140.377 71.7972C146.439 74.8463 144.491 80.1383 149.907 81.0934C153.354 81.7011 158.625 80.5998 159.58 75.1833C160.536 69.7669 156.248 62.4106 146.892 60.7609C134.287 58.5382 119.088 71.5974 114.339 78.3757L100.423 194.727C105.329 203.377 131.766 218.531 181.006 227.214C230.247 235.896 260.234 231.875 267.84 224.247Z" fill="#FF7700"/>
<path opacity="0.4" d="M216.716 113.72C212.427 112.469 207.934 112.076 203.493 112.563L153.296 118.066C151.363 118.278 149.863 119.848 149.74 121.788L144.971 196.665C144.858 198.43 145.918 200.059 147.577 200.672L192.024 217.084C197.723 219.189 203.882 219.728 209.861 218.645L256.482 210.2C258.222 209.885 259.549 208.464 259.745 206.707L268.05 132.139C268.265 130.207 267.061 128.4 265.195 127.856L216.716 113.72Z" stroke="white" stroke-width="4"/>
<path d="M261.041 133.297L214.345 139.25" stroke="white" stroke-width="4" stroke-linecap="round"/>
<path opacity="0.4" d="M206.174 155.6L201.337 210.889" stroke="white" stroke-width="4" stroke-linecap="round"/>
<path d="M156.354 125.142L200.398 138.03" stroke="white" stroke-width="4" stroke-linecap="round"/>
<mask id="path-11-inside-2_37_26" fill="white">
<path fill-rule="evenodd" clip-rule="evenodd" d="M268.182 150.599L270.211 132.383C270.534 129.485 268.727 126.775 265.927 125.959L217.258 111.767C212.843 110.479 208.217 110.075 203.645 110.576L153.251 116.101C150.352 116.419 148.102 118.774 147.917 121.684L147.16 133.558C162.144 143.491 182.431 150.331 205.522 154.402C230.85 158.868 252.844 156.871 268.182 150.599Z"/>
</mask>
<path fill-rule="evenodd" clip-rule="evenodd" d="M268.182 150.599L270.211 132.383C270.534 129.485 268.727 126.775 265.927 125.959L217.258 111.767C212.843 110.479 208.217 110.075 203.645 110.576L153.251 116.101C150.352 116.419 148.102 118.774 147.917 121.684L147.16 133.558C162.144 143.491 182.431 150.331 205.522 154.402C230.85 158.868 252.844 156.871 268.182 150.599Z" fill="white" fill-opacity="0.7"/>
<path d="M268.182 150.599L271.164 150.931L270.966 152.701L269.318 153.376L268.182 150.599ZM270.211 132.383L273.192 132.715L270.211 132.383ZM265.927 125.959L265.088 128.839L265.927 125.959ZM217.258 111.767L216.418 114.647L217.258 111.767ZM203.645 110.576L203.972 113.558L203.972 113.558L203.645 110.576ZM153.251 116.101L153.578 119.083L153.251 116.101ZM147.917 121.684L150.911 121.875L150.911 121.875L147.917 121.684ZM147.16 133.558L145.503 136.058L144.056 135.099L144.166 133.367L147.16 133.558ZM265.2 150.267L267.229 132.051L273.192 132.715L271.164 150.931L265.2 150.267ZM267.229 132.051C267.391 130.602 266.487 129.247 265.088 128.839L266.767 123.079C270.966 124.303 273.677 128.369 273.192 132.715L267.229 132.051ZM265.088 128.839L216.418 114.647L218.097 108.887L266.767 123.079L265.088 128.839ZM216.418 114.647C212.381 113.47 208.152 113.1 203.972 113.558L203.319 107.594C208.282 107.05 213.304 107.489 218.097 108.887L216.418 114.647ZM203.972 113.558L153.578 119.083L152.924 113.119L203.319 107.594L203.972 113.558ZM153.578 119.083C152.128 119.242 151.003 120.42 150.911 121.875L144.923 121.493C145.201 117.128 148.576 113.595 152.924 113.119L153.578 119.083ZM150.911 121.875L150.154 133.748L144.166 133.367L144.923 121.493L150.911 121.875ZM148.818 131.057C163.33 140.678 183.174 147.416 206.043 151.448L205.001 157.357C181.688 153.246 160.957 146.304 145.503 136.058L148.818 131.057ZM206.043 151.448C230.981 155.845 252.371 153.824 267.046 147.822L269.318 153.376C253.317 159.919 230.719 161.892 205.001 157.357L206.043 151.448Z" fill="white" mask="url(#path-11-inside-2_37_26)"/>
<path d="M273.467 145.197C260.5 155.689 235.631 158.326 203.507 152.662C161.221 145.206 133 130 121 96.5" stroke="#FFC646" stroke-width="4" stroke-linecap="round"/>
<circle cx="7" cy="7" r="7" transform="matrix(-0.984808 -0.173648 -0.173648 0.984808 171.718 86.9701)" fill="#D2670A"/>
<path d="M154.424 72.751C153.642 68.5513 149.152 65.2211 145.039 65.5113" stroke="#FFC646" stroke-width="4" stroke-linecap="round"/>
<path d="M166.563 93.1691C167.403 91.2863 165.201 89.375 163.637 89.607" stroke="#FFC646" stroke-width="4" stroke-linecap="round"/>
<path d="M295.323 98.6224L267.175 222.195C263.506 234.021 226.603 235.089 180.783 227.01C134.964 218.93 99.3544 203.676 101.248 192.938L116.466 64.7015" stroke="#7FCDE5" stroke-width="5" stroke-linecap="round"/>
<g opacity="0.5">
<path d="M132.352 61.0787L173.952 72.0694L154.723 234.11L114.141 228.267L132.352 61.0787Z" fill="white"/>
<path d="M180.738 74.0568L186.677 74.9119L167.448 236.953L161.509 236.097L180.738 74.0568Z" fill="white"/>
<mask id="mask1_37_26" style="mask-type:alpha" maskUnits="userSpaceOnUse" x="81" y="184" width="200" height="70">
<path d="M111.764 230.298C128.193 236.868 150.929 243.069 176.143 247.515C201.356 251.961 224.842 253.909 242.527 253.356C251.286 253.081 259.167 252.181 265.271 250.399C268.303 249.514 271.452 248.256 274.128 246.341C276.843 244.399 279.812 241.212 280.644 236.494C281.476 231.777 279.776 227.767 277.889 225.013C276.029 222.298 273.5 220.039 270.954 218.171C265.827 214.408 258.73 210.867 250.593 207.613C234.164 201.044 211.428 194.842 186.214 190.396C161.001 185.951 137.515 184.002 119.829 184.556C111.07 184.83 103.19 185.731 97.0855 187.513C94.0539 188.398 90.9051 189.656 88.2285 191.571C85.5132 193.513 82.5446 196.7 81.7127 201.417C80.8809 206.135 82.5805 210.145 84.4677 212.899C86.3281 215.613 88.8567 217.873 91.4029 219.741C96.5297 223.503 103.627 227.045 111.764 230.298Z" fill="#7FCDE5"/>
</mask>
<g mask="url(#mask1_37_26)">
<path d="M177.011 242.591C149.266 237.699 124.473 230.462 106.792 222.626C97.9875 218.724 90.6812 214.558 85.6449 210.281C80.9169 206.266 76.7304 200.879 77.8306 194.64C78.9307 188.401 84.7071 184.771 90.5232 182.615C96.7184 180.319 105.009 178.903 114.617 178.248C133.912 176.932 159.685 178.611 187.43 183.503C215.175 188.395 239.967 195.632 257.649 203.468C266.453 207.37 273.759 211.536 278.795 215.813C283.523 219.828 287.71 225.215 286.61 231.454C285.51 237.693 279.733 241.323 273.917 243.479C267.722 245.775 259.431 247.191 249.824 247.846C230.528 249.162 204.756 247.483 177.011 242.591Z" stroke="white" stroke-width="10"/>
</g>
<path fill-rule="evenodd" clip-rule="evenodd" d="M204.621 86.0068C179.407 81.561 156.671 75.359 140.242 68.7899C132.105 65.5365 125.008 61.9949 119.881 58.2326C117.335 56.3641 114.806 54.105 112.946 51.3904C111.059 48.6366 109.359 44.6266 110.191 39.9089C111.023 35.1912 113.991 32.0044 116.707 30.0621C119.383 28.1475 122.532 26.8895 125.564 26.0045C131.668 24.2226 139.549 23.3219 148.307 23.0477C165.993 22.4939 189.479 24.4421 214.692 28.888C239.906 33.3338 262.642 39.5357 279.071 46.1049C287.208 49.3583 294.305 52.8999 299.432 56.6622C301.978 58.5306 304.507 60.7898 306.367 63.5043C308.254 66.2582 309.954 70.2682 309.122 74.9858C308.29 79.7035 305.322 82.8904 302.606 84.8327C299.93 86.7473 296.781 88.0053 293.749 88.8903C287.645 90.6722 279.765 91.5728 271.006 91.8471C253.32 92.4009 229.834 90.4526 204.621 86.0068ZM207.357 75.1587C157.863 66.4315 119.372 50.0976 121.386 38.6758C123.4 27.254 165.156 25.0696 214.651 33.7968C264.145 42.524 302.635 58.858 300.621 70.2797C298.607 81.7015 256.852 83.8859 207.357 75.1587Z" fill="white"/>
</g>
<path fill-rule="evenodd" clip-rule="evenodd" d="M209.263 32.8846C211.047 33.1742 212.844 33.4782 214.651 33.7968C215.15 33.8848 215.648 33.9736 216.145 34.0632L215.555 39.0375C214.966 38.9309 214.375 38.8253 213.782 38.7208C212.069 38.4187 210.365 38.1299 208.673 37.8544L209.263 32.8846ZM167.72 33.6025L168.263 28.6192C141.428 27.6093 122.718 31.1229 121.386 38.6758C119.372 50.0976 157.863 66.4315 207.357 75.1587C256.852 83.8859 298.607 81.7015 300.621 70.2797C302.534 59.4342 267.925 44.1595 222.053 35.1741L221.462 40.1535C242.776 44.3499 261.483 49.8949 274.998 55.6305C282.595 58.8541 288.291 62.0298 291.878 64.8947C293.673 66.3289 294.73 67.521 295.275 68.408C295.648 69.0148 295.694 69.3249 295.696 69.4113C295.664 69.4916 295.515 69.7674 294.958 70.2101C294.142 70.8572 292.741 71.6159 290.563 72.3495C286.213 73.8149 279.774 74.8508 271.533 75.2819C255.134 76.1398 232.714 74.5527 208.226 70.2347C183.737 65.9167 162.126 59.7401 147.009 53.325C139.413 50.1014 133.717 46.9257 130.13 44.0609C128.335 42.6267 127.277 41.4345 126.732 40.5475C126.36 39.9407 126.314 39.6307 126.312 39.5442C126.344 39.4639 126.492 39.1881 127.05 38.7454C127.866 38.0983 129.267 37.3396 131.445 36.606C135.795 35.1406 142.234 34.1047 150.475 33.6736C155.662 33.4022 161.452 33.3755 167.72 33.6025ZM126.312 39.5247C126.312 39.5205 126.312 39.5185 126.313 39.5186C126.313 39.5188 126.313 39.5255 126.311 39.5383C126.311 39.5325 126.311 39.5279 126.312 39.5247ZM295.704 69.3868C295.703 69.3868 295.701 69.3931 295.698 69.4059C295.703 69.3933 295.704 69.3869 295.704 69.3868ZM295.695 69.4369C295.696 69.437 295.697 69.4306 295.696 69.4172C295.694 69.4301 295.695 69.4368 295.695 69.4369ZM126.309 39.5497C126.305 39.5622 126.303 39.5686 126.304 39.5687C126.304 39.5687 126.307 39.5624 126.309 39.5497Z" fill="#7FCDE5"/>
<path d="M52.5 110C52.5 108.067 50.933 106.5 49 106.5C47.067 106.5 45.5 108.067 45.5 110L52.5 110ZM86.7506 170.551C87.6511 167.169 87.653 167.17 87.6548 167.17C87.6552 167.17 87.6568 167.171 87.6577 167.171C87.6593 167.171 87.6603 167.172 87.6608 167.172C87.6618 167.172 87.6606 167.172 87.6571 167.171C87.6503 167.169 87.6346 167.164 87.6104 167.158C87.562 167.144 87.4796 167.119 87.3655 167.084C87.1373 167.013 86.7825 166.897 86.3193 166.73C85.3922 166.394 84.0347 165.852 82.3901 165.048C79.0969 163.437 74.6827 160.787 70.2659 156.657C61.5172 148.476 52.5 134.256 52.5 110L45.5 110C45.5 136.244 55.3582 152.3 65.4847 161.77C70.5055 166.465 75.529 169.484 79.314 171.336C81.2085 172.263 82.8003 172.901 83.9377 173.312C84.5067 173.518 84.963 173.667 85.2877 173.768C85.4501 173.819 85.5797 173.857 85.6742 173.884C85.7214 173.898 85.7599 173.909 85.7893 173.917C85.804 173.921 85.8164 173.924 85.8266 173.927C85.8316 173.929 85.8361 173.93 85.84 173.931C85.842 173.931 85.8445 173.932 85.8455 173.932C85.8478 173.933 85.85 173.934 86.7506 170.551Z" fill="#7FCDE5"/>
<path d="M333.992 247.765C334.122 249.693 332.664 251.362 330.735 251.492C328.807 251.622 327.138 250.164 327.008 248.235L333.992 247.765ZM290 197C290.598 193.551 290.6 193.552 290.602 193.552C290.603 193.552 290.605 193.553 290.607 193.553C290.611 193.554 290.615 193.554 290.62 193.555C290.63 193.557 290.642 193.559 290.656 193.562C290.685 193.567 290.722 193.574 290.768 193.583C290.861 193.601 290.988 193.626 291.149 193.66C291.469 193.728 291.921 193.831 292.487 193.976C293.618 194.266 295.207 194.727 297.11 195.424C300.909 196.816 306.002 199.162 311.202 202.995C321.699 210.734 332.416 224.391 333.992 247.765L327.008 248.235C325.584 227.109 316.051 215.266 307.048 208.63C302.498 205.275 298.028 203.215 294.703 201.997C293.043 201.39 291.679 200.995 290.747 200.756C290.282 200.637 289.925 200.556 289.695 200.508C289.58 200.483 289.496 200.467 289.447 200.457C289.422 200.452 289.406 200.449 289.398 200.448C289.395 200.447 289.393 200.447 289.394 200.447C289.394 200.447 289.395 200.447 289.396 200.448C289.397 200.448 289.398 200.448 289.399 200.448C289.4 200.448 289.402 200.449 290 197Z" fill="#7FCDE5"/>
<path d="M209.192 299.571C209.851 301.388 208.912 303.395 207.095 304.054C205.277 304.713 203.27 303.774 202.611 301.957L209.192 299.571ZM207.365 252.294C210.669 253.449 210.669 253.448 210.67 253.448C210.67 253.448 210.67 253.447 210.67 253.447C210.67 253.447 210.67 253.446 210.67 253.447C210.67 253.447 210.67 253.448 210.669 253.449C210.668 253.452 210.666 253.459 210.662 253.468C210.656 253.487 210.646 253.517 210.631 253.56C210.603 253.644 210.559 253.775 210.502 253.95C210.389 254.3 210.223 254.824 210.023 255.499C209.623 256.85 209.085 258.802 208.546 261.171C207.464 265.931 206.401 272.276 206.401 278.78L199.401 278.78C199.401 271.573 200.571 264.675 201.72 259.619C202.298 257.081 202.876 254.982 203.312 253.51C203.53 252.773 203.714 252.192 203.844 251.789C203.91 251.588 203.962 251.431 203.999 251.322C204.017 251.267 204.032 251.225 204.042 251.194C204.047 251.179 204.052 251.167 204.055 251.158C204.056 251.153 204.058 251.149 204.059 251.146C204.059 251.145 204.06 251.143 204.06 251.142C204.06 251.142 204.06 251.141 204.061 251.141C204.061 251.14 204.061 251.14 207.365 252.294ZM206.401 278.78C206.401 285.38 207.124 290.647 207.835 294.232C208.19 296.025 208.542 297.395 208.799 298.3C208.928 298.753 209.033 299.088 209.102 299.302C209.137 299.409 209.162 299.485 209.178 299.53C209.185 299.553 209.191 299.567 209.193 299.574C209.194 299.577 209.195 299.579 209.195 299.578C209.194 299.578 209.194 299.577 209.194 299.576C209.193 299.575 209.193 299.575 209.193 299.574C209.193 299.573 209.192 299.572 209.192 299.572C209.192 299.571 209.192 299.571 205.901 300.764C202.611 301.957 202.611 301.956 202.61 301.955C202.61 301.955 202.61 301.954 202.61 301.953C202.609 301.952 202.609 301.95 202.608 301.949C202.607 301.945 202.605 301.941 202.604 301.937C202.601 301.928 202.597 301.918 202.593 301.905C202.584 301.88 202.572 301.846 202.558 301.805C202.529 301.722 202.491 301.607 202.443 301.461C202.348 301.169 202.219 300.751 202.066 300.213C201.761 299.139 201.363 297.584 200.968 295.594C200.179 291.615 199.401 285.89 199.401 278.78L206.401 278.78Z" fill="#7FCDE5"/>
<path d="M155.865 297.379C156.384 299.241 155.295 301.171 153.434 301.69C151.572 302.21 149.641 301.121 149.122 299.259L155.865 297.379ZM152.238 243.505C155.638 244.338 155.638 244.338 155.638 244.338C155.638 244.338 155.638 244.337 155.638 244.337C155.638 244.337 155.638 244.337 155.638 244.337C155.638 244.338 155.638 244.339 155.637 244.341C155.636 244.345 155.634 244.353 155.632 244.363C155.627 244.384 155.619 244.417 155.608 244.463C155.587 244.554 155.554 244.693 155.512 244.878C155.428 245.248 155.306 245.8 155.159 246.51C154.865 247.932 154.47 249.985 154.074 252.484C153.281 257.497 152.496 264.242 152.496 271.26L145.496 271.26C145.496 263.757 146.332 256.625 147.16 251.39C147.575 248.767 147.991 246.604 148.305 245.09C148.461 244.333 148.593 243.737 148.686 243.327C148.733 243.122 148.77 242.962 148.796 242.852C148.809 242.797 148.819 242.755 148.826 242.724C148.83 242.709 148.833 242.698 148.835 242.689C148.836 242.684 148.837 242.681 148.838 242.678C148.838 242.677 148.838 242.676 148.838 242.675C148.839 242.674 148.839 242.674 148.839 242.673C148.839 242.673 148.839 242.672 152.238 243.505ZM152.496 271.26C152.496 278.255 153.34 284.806 154.191 289.625C154.616 292.029 155.039 293.987 155.355 295.336C155.512 296.01 155.643 296.531 155.732 296.879C155.777 297.052 155.812 297.183 155.834 297.267C155.845 297.309 155.854 297.34 155.859 297.358C155.862 297.368 155.863 297.374 155.864 297.377C155.865 297.379 155.865 297.38 155.865 297.38C155.865 297.38 155.865 297.38 155.865 297.38C155.865 297.38 155.865 297.38 155.865 297.379C155.865 297.379 155.865 297.379 152.493 298.319C149.122 299.259 149.122 299.259 149.122 299.258C149.122 299.258 149.121 299.257 149.121 299.257C149.121 299.256 149.121 299.254 149.12 299.253C149.119 299.25 149.118 299.247 149.117 299.242C149.115 299.233 149.111 299.222 149.107 299.207C149.099 299.177 149.088 299.136 149.074 299.082C149.045 298.976 149.004 298.822 148.954 298.625C148.852 298.23 148.709 297.658 148.539 296.93C148.198 295.474 147.748 293.389 147.298 290.843C146.4 285.763 145.496 278.785 145.496 271.26L152.496 271.26Z" fill="#7FCDE5"/>
<circle cx="5.5" cy="5.5" r="5.5" transform="matrix(-0.984808 -0.173648 -0.173648 0.984808 250.799 189.952)" fill="#7B3105"/>
<circle cx="5.5" cy="5.5" r="5.5" transform="matrix(-0.984808 -0.173648 -0.173648 0.984808 135.096 169.374)" fill="#7B3105"/>
<path d="M255.696 182.36C253.38 180.195 250.49 178.743 247.371 178.178C244.252 177.613 241.036 177.958 238.108 179.172" stroke="#7B3105" stroke-width="4" stroke-linecap="round"/>
<path d="M139.992 161.782C137.677 159.617 134.787 158.166 131.668 157.6C128.549 157.035 125.333 157.38 122.405 158.594" stroke="#7B3105" stroke-width="4" stroke-linecap="round"/>
<path fill-rule="evenodd" clip-rule="evenodd" d="M210.054 192.569C212.549 193.009 213.34 196.08 211.187 197.415C202.92 202.54 192.809 204.76 182.476 202.938C172.143 201.116 163.4 195.572 157.385 187.928C155.818 185.937 157.613 183.322 160.107 183.762L210.054 192.569Z" fill="white"/>
<path d="M157.385 187.928L158.956 186.691L157.385 187.928ZM211.187 197.415L212.241 199.115L211.187 197.415ZM182.823 200.968C192.654 202.702 202.268 200.591 210.133 195.715L212.241 199.115C203.572 204.489 192.965 206.818 182.129 204.907L182.823 200.968ZM158.956 186.691C164.68 193.964 172.993 199.235 182.823 200.968L182.129 204.907C171.293 202.997 162.121 197.18 155.813 189.165L158.956 186.691ZM160.455 181.793L210.401 190.6L209.706 194.539L159.76 185.732L160.455 181.793ZM155.813 189.165C154.466 187.453 154.541 185.353 155.559 183.825C156.555 182.329 158.41 181.432 160.455 181.793L159.76 185.732C159.31 185.652 159.02 185.843 158.888 186.043C158.819 186.145 158.796 186.244 158.798 186.325C158.8 186.395 158.821 186.519 158.956 186.691L155.813 189.165ZM210.133 195.715C210.32 195.599 210.382 195.49 210.408 195.425C210.438 195.349 210.449 195.249 210.42 195.129C210.364 194.896 210.157 194.618 209.706 194.539L210.401 190.6C212.445 190.96 213.882 192.437 214.307 194.184C214.741 195.968 214.092 197.967 212.241 199.115L210.133 195.715Z" fill="#7B3105"/>
<defs>
<filter id="filter0_f_37_26" x="81.6505" y="269.118" width="210" height="66" filterUnits="userSpaceOnUse" color-interpolation-filters="sRGB">
<feFlood flood-opacity="0" result="BackgroundImageFix"/>
<feBlend mode="normal" in="SourceGraphic" in2="BackgroundImageFix" result="shape"/>
<feGaussianBlur stdDeviation="7" result="effect1_foregroundBlur_37_26"/>
</filter>
</defs>
</svg>
