<svg width="725" height="851" viewBox="0 0 725 851" fill="none" xmlns="http://www.w3.org/2000/svg">
<!--<rect width="725" height="851" fill="#F5F5F5"/>-->
<path d="M207.939 488.28C251.619 472.23 299.917 464.581 349.767 465.821C399.616 467.061 449.927 477.162 497.505 495.482C545.083 513.802 588.887 539.941 626.136 572.24C663.386 604.538 693.266 642.29 713.879 683.097L579.85 719.946C567.629 695.753 549.914 673.371 527.83 654.222C505.745 635.073 479.775 619.576 451.567 608.714C423.36 597.853 393.532 591.864 363.977 591.129C334.423 590.394 305.788 594.929 279.891 604.445L207.939 488.28Z" fill="#3A454B"/>
<rect x="8.42188" y="773.559" width="922.47" height="124.697" transform="rotate(-51.6931 8.42188 773.559)" fill="#FF5100"/>
<path d="M225.219 280.966C224.346 220.81 213.609 161.205 193.436 104.526L82.3378 144.067C98.1855 188.594 106.62 235.419 107.306 282.677L225.219 280.966Z" fill="#FF5100"/>
<path d="M569.015 182.043C437.789 233.175 292.602 235.679 159.692 189.103L179.204 133.423C298.823 175.341 429.492 173.087 547.594 127.069L569.015 182.043Z" fill="#FF5100"/>
<path d="M197.029 260.944C197.42 191.769 184.757 123.141 159.705 58.661L43.3917 103.851C62.7596 153.702 72.5494 206.759 72.2476 260.239L197.029 260.944Z" fill="#3A454B"/>
<rect x="0.968262" y="736.545" width="898.326" height="128.075" transform="rotate(-51.6931 0.968262 736.545)" fill="#3A454B"/>
<path d="M658.336 111.11C565.017 166.661 458.175 195.377 349.58 194.095C240.985 192.812 134.851 161.581 42.8689 103.842L107.896 0.250474C180.809 46.0203 264.941 70.777 351.024 71.7937C437.107 72.8104 521.8 50.0475 595.774 6.0125L658.336 111.11Z" fill="#3A454B"/>
<path d="M581.773 720.258C559.049 637.797 565.159 550.048 599.092 471.532L724.815 525.867C703.259 575.745 699.377 631.488 713.813 683.872L581.773 720.258Z" fill="#FF5100"/>
</svg>
