<?xml version="1.0" standalone="no"?><!DOCTYPE svg PUBLIC "-//W3C//DTD SVG 1.1//EN" "http://www.w3.org/Graphics/SVG/1.1/DTD/svg11.dtd"><svg t="1706173298443" class="icon" viewBox="0 0 1024 1024" version="1.1" xmlns="http://www.w3.org/2000/svg" p-id="5186" xmlns:xlink="http://www.w3.org/1999/xlink" width="200" height="200"><path d="M158.4 741.28a16 16 0 0 1-16-11.52 382.24 382.24 0 0 1 23.2-272 16 16 0 0 1 14.4-8.96H480a16 16 0 0 1 0 32H190.72A348.96 348.96 0 0 0 160 624a343.52 343.52 0 0 0 13.76 96 16 16 0 0 1-10.88 19.84 14.4 14.4 0 0 1-4.48 1.44zM512 1008a386.72 386.72 0 0 1-346.08-217.28 16 16 0 0 1 28.8-14.08A352 352 0 0 0 864 624a348.96 348.96 0 0 0-30.72-144H624a16 16 0 0 1 0-32h219.36a16 16 0 0 1 14.4 8.96A377.6 377.6 0 0 1 896 624a384 384 0 0 1-384 384zM560 480h-16a16 16 0 0 1 0-32h16a16 16 0 0 1 0 32z" p-id="5187"></path><path d="M679.04 808.96a16 16 0 0 1-7.36-1.76 16 16 0 0 1-6.88-21.6 352 352 0 0 0 4.16-314.56 16 16 0 0 1 28.8-14.08A377.6 377.6 0 0 1 736 624a383.04 383.04 0 0 1-42.88 176 16 16 0 0 1-14.08 8.96zM560 480h-16a16 16 0 0 1 0-32h16a16 16 0 0 1 0 32z" p-id="5188"></path><path d="M800 605.28a16 16 0 0 1-16-16A267.68 267.68 0 0 0 761.12 480H624a16 16 0 0 1 0-32h147.36a16 16 0 0 1 14.4 8.96A300.96 300.96 0 0 1 816 589.28a16 16 0 0 1-16 16zM224 605.28a16 16 0 0 1-16-16 300.96 300.96 0 0 1 30.24-132.32 16 16 0 0 1 14.4-8.96H480a16 16 0 0 1 0 32H262.88A267.68 267.68 0 0 0 240 589.28a16 16 0 0 1-16 16z" p-id="5189"></path><path d="M816 480H624a16 16 0 0 1 0-32h167.68l-25.92-60.64A32 32 0 0 0 736 368H288a32 32 0 0 0-29.44 19.36L232.32 448H480a16 16 0 0 1 0 32H208a16 16 0 0 1-14.72-22.24l35.52-82.88A64 64 0 0 1 288 336h448a64 64 0 0 1 58.88 38.88l35.52 82.88A16 16 0 0 1 816 480z" p-id="5190"></path><path d="M560 480h-16a16 16 0 0 1 0-32h16a16 16 0 0 1 0 32z" p-id="5191"></path><path d="M368 896m-16 0a16 16 0 1 0 32 0 16 16 0 1 0-32 0Z" p-id="5192"></path><path d="M304 832m-16 0a16 16 0 1 0 32 0 16 16 0 1 0-32 0Z" p-id="5193"></path><path d="M384 816m-16 0a16 16 0 1 0 32 0 16 16 0 1 0-32 0Z" p-id="5194"></path><path d="M673.76 368H600a16 16 0 0 1-13.92-8 16 16 0 0 1 0-16l46.88-81.28a16 16 0 1 1 27.84 16L627.68 336h36.8l60-104a48 48 0 0 1 41.6-24H864v-32h-107.68a62.72 62.72 0 0 0-54.4 32l-10.08 17.44a16 16 0 0 1-27.84-16l10.08-17.44a96 96 0 0 1 82.24-48H880a16 16 0 0 1 16 16v64a16 16 0 0 1-16 16h-113.92a16 16 0 0 0-13.76 8l-64 112a16 16 0 0 1-14.56 8zM416 432a16 16 0 0 1-16-16v-64a16 16 0 0 1 32 0v64a16 16 0 0 1-16 16zM560 192H144a16 16 0 0 1-9.12-29.12l86.88-60.16A16 16 0 1 1 240 128.96L195.2 160h313.6L352 51.52l-59.52 41.12a16 16 0 0 1-18.24-26.24l68.64-48a16 16 0 0 1 18.24 0l208 144A16 16 0 0 1 560 192z" p-id="5195"></path><path d="M408.8 192h-113.6a16 16 0 0 1-13.12-7.04 16 16 0 0 1-1.76-14.88l56.8-144a16 16 0 0 1 29.76 0l56.8 144a16 16 0 0 1-1.76 14.88 16 16 0 0 1-13.12 7.04z m-90.08-32h66.56L352 75.68z" p-id="5196"></path><path d="M352 368a16 16 0 0 1-16-16V176a16 16 0 0 1 32 0v176a16 16 0 0 1-16 16z" p-id="5197"></path></svg>