<?xml version="1.0" standalone="no"?><!DOCTYPE svg PUBLIC "-//W3C//DTD SVG 1.1//EN" "http://www.w3.org/Graphics/SVG/1.1/DTD/svg11.dtd"><svg t="1706173245928" class="icon" viewBox="0 0 1024 1024" version="1.1" xmlns="http://www.w3.org/2000/svg" p-id="4327" xmlns:xlink="http://www.w3.org/1999/xlink" width="200" height="200"><path d="M536 924.832c-191.576 0-347.44-155.856-347.44-347.44a347.776 347.776 0 0 1 43.08-167.6 24 24 0 1 1 42.032 23.192 299.584 299.584 0 0 0-37.112 144.408c0 165.112 134.328 299.44 299.44 299.44s299.44-134.328 299.44-299.44c0-50.48-12.832-100.416-37.112-144.408a24 24 0 0 1 42.032-23.192 347.84 347.84 0 0 1 43.08 167.6c0 191.576-155.864 347.44-347.44 347.44z" p-id="4328"></path><path d="M536 549.392c-153.056 0-308-41.216-308-120 0-78.784 154.944-120 308-120s308 41.216 308 120c0 78.776-154.944 120-308 120z m0-192c-168.224 0-260 47.56-260 72 0 24.44 91.776 72 260 72s260-47.56 260-72c0-24.44-91.776-72-260-72z" p-id="4329"></path><path d="M536 490.504c-71.976 0-149.44-19.128-149.44-61.112s77.464-61.104 149.44-61.104 149.44 19.12 149.44 61.104c0 41.984-77.464 61.112-149.44 61.112z m0-90.216c-74.216 0-115.96 20.432-117.44 29.152 1.48 8.616 43.216 29.056 117.44 29.056 74.216 0 115.96-20.44 117.44-29.16-1.48-8.616-43.224-29.048-117.44-29.048z" p-id="4330"></path><path d="M539.984 466.408a24 24 0 0 1-21.672-34.28l144-304A24 24 0 0 1 684 114.4h160a24 24 0 1 1 0 48H699.184L561.688 452.68a24.008 24.008 0 0 1-21.704 13.728z" p-id="4331"></path><path d="M542.92 427.648L398.048 241.952c-0.2 0.416-0.32 0.84-0.536 1.248-4.192 8.096-10.192 15.16-17.856 20.16-3.28 2.136-7.176 4.192-11.04 4.736-4.568 0.648-7.368 0.928-10.384 0.848l146.848 188.216a23.968 23.968 0 0 0 33.688 4.16 23.984 23.984 0 0 0 4.152-33.672z" p-id="4332"></path><path d="M244.384 338.408c-34.48 0-52.432-14.424-61.432-26.52a24 24 0 0 1-4.232-19.192l41.36-199.176a23.936 23.936 0 0 1 25-19.072l209.072 13.088a24 24 0 0 1 17.768 9.64c32.904 44.296-4.384 123.848-86.752 185.056-47.352 35.168-99.984 56.176-140.784 56.176z m-15.688-50.32c4.104 1.504 9.456 2.32 15.688 2.32 30.4 0 73.376-17.904 112.152-46.712 54.808-40.728 80.768-87.12 79.56-109.208l-173.256-10.848-34.144 164.448z" p-id="4333"></path></svg>