<?xml version="1.0" standalone="no"?><!DOCTYPE svg PUBLIC "-//W3C//DTD SVG 1.1//EN" "http://www.w3.org/Graphics/SVG/1.1/DTD/svg11.dtd"><svg t="1706173623254" class="icon" viewBox="0 0 1024 1024" version="1.1" xmlns="http://www.w3.org/2000/svg" p-id="21775" xmlns:xlink="http://www.w3.org/1999/xlink" width="200" height="200"><path d="M797.354667 802.133333a32 32 0 0 0-58.666667-25.6l58.666667 25.6z m-88.874667 123.733334l-29.354667-12.8 29.354667 12.8z m-392.96 0l29.354667-12.8-29.354667 12.8z m-30.208-149.333334a32 32 0 0 0-58.624 25.6l58.624-25.6z m-58.624-554.666666a32 32 0 1 0 58.624 25.6l-58.624-25.6z m88.832-123.733334l29.354667 12.8-29.354667-12.8z m392.96 0l-29.354667 12.8 29.354667-12.8z m30.165333 149.333334a32 32 0 0 0 58.666667-25.6l-58.666667 25.6zM272.341333 448.426667a32 32 0 1 0 9.984 63.146666l-9.984-63.146666z m141.44 10.026666l-4.992-31.573333 4.992 31.573333z m111.317334-60.074666l-23.68-21.504 23.68 21.504z m152.917333-61.994667l2.005333-31.957333-2.005333 31.957333z m77.312 36.864a32 32 0 1 0 4.010667-63.872l-4.010667 63.872zM265.216 661.376a32 32 0 0 0 2.901333 63.914667l-2.901333-63.914667z m119.893333 26.581333l-1.450666-32 1.450666 32z m170.666667-108.074666l28.245333 14.933333-28.245333-14.933333z m127.402667-101.461334l-8.234667-30.890666 8.234667 30.890666z m82.389333 11.178667a32 32 0 0 0-16.469333-61.866667l16.469333 61.866667zM736 682.666667a32 32 0 0 0 64 0h-64zM288 341.333333a32 32 0 0 0-64 0h64z m450.688 435.2l-59.562667 136.533334 58.666667 25.6 59.52-136.533334-58.666667-25.6z m-59.562667 136.533334a10.666667 10.666667 0 0 1 9.813334-6.4v64a53.333333 53.333333 0 0 0 48.853333-32l-58.666667-25.6z m9.813334-6.4H335.061333v64h353.792v-64z m-353.834667 0c4.266667 0 8.106667 2.517333 9.770667 6.4l-58.666667 25.6c8.490667 19.413333 27.690667 32 48.896 32v-64z m9.770667 6.4l-59.562667-136.533334-58.624 25.6L286.208 938.666667l58.666667-25.6zM285.312 247.466667l59.562667-136.533334L286.208 85.333333 226.688 221.866667l58.624 25.6z m59.562667-136.533334a10.666667 10.666667 0 0 1-9.813334 6.4v-64A53.333333 53.333333 0 0 0 286.250667 85.333333l58.666666 25.6z m-9.813334 6.4h353.834667v-64H335.104v64z m353.834667 0a10.666667 10.666667 0 0 1-9.770667-6.4l58.666667-25.6a53.333333 53.333333 0 0 0-48.896-32v64z m-9.770667-6.4l59.562667 136.533334 58.666667-25.6L737.749333 85.333333l-58.666666 25.6zM288 256A10.666667 10.666667 0 0 1 298.666667 245.333333v-64A74.666667 74.666667 0 0 0 224 256h64zM298.666667 245.333333h426.666666v-64H298.666667v64z m426.666666 0a10.666667 10.666667 0 0 1 10.666667 10.666667h64A74.666667 74.666667 0 0 0 725.333333 181.333333v64z m10.666667 10.666667v512h64V256h-64z m0 512a10.666667 10.666667 0 0 1-10.666667 10.666667v64A74.666667 74.666667 0 0 0 800 768h-64z m-10.666667 10.666667H298.666667v64h426.666666v-64z m-426.666666 0a10.666667 10.666667 0 0 1-10.666667-10.666667h-64c0 41.216 33.408 74.666667 74.666667 74.666667v-64zM288 768V256h-64v512h64z m-5.674667-256.426667l136.448-21.504-9.984-63.232-136.448 21.546667 9.984 63.232z m136.448-21.504a222.592 222.592 0 0 0 130.005334-70.144l-47.36-43.093333a158.592 158.592 0 0 1-92.586667 50.005333l9.941333 63.232z m130.005334-70.144a158.592 158.592 0 0 1 127.232-51.626666l4.010666-63.872a222.634667 222.634667 0 0 0-178.602666 72.448l47.36 43.050666z m127.232-51.626666l79.36 4.949333 3.968-63.872-79.36-4.949333-3.968 63.872zM268.117333 725.333333l118.485334-5.376-2.944-63.914666-118.442667 5.376 2.901333 63.914666z m118.485334-5.376a235.52 235.52 0 0 0 197.418666-125.098666l-56.533333-29.909334a171.52 171.52 0 0 1-143.786667 91.093334l2.901334 63.914666z m197.418666-125.098666a171.52 171.52 0 0 1 107.434667-85.461334l-16.512-61.866666a235.52 235.52 0 0 0-147.456 117.418666l56.533333 29.909334z m107.434667-85.461334l74.112-19.754666-16.469333-61.866667-74.154667 19.797333 16.469333 61.866667zM736 256v426.666667h64V256h-64z m-512 85.333333v426.666667h64V341.333333h-64z" p-id="21776"></path></svg>