<?xml version="1.0" standalone="no"?><!DOCTYPE svg PUBLIC "-//W3C//DTD SVG 1.1//EN" "http://www.w3.org/Graphics/SVG/1.1/DTD/svg11.dtd"><svg t="1706173656390" class="icon" viewBox="0 0 1024 1024" version="1.1" xmlns="http://www.w3.org/2000/svg" p-id="22854" xmlns:xlink="http://www.w3.org/1999/xlink" width="200" height="200"><path d="M696.1 862.8l-13.9 26.1c-5.9 11-15.9 18.5-27.4 20.8-29.6 5.9-69.5 10.1-122.9 10.1-54.4 0-94.7-4.3-124.4-10.4-11.5-2.3-21.4-9.8-27.2-20.7l-14-26.2c-2.2-4.1 1.2-9.1 5.4-7.9 24.9 6.7 63.1 12.8 121.1 14.8 12.1 0.4 25.2 0.6 39.1 0.6 28.4 0 52.8-0.9 74-2.5 38-2.7 65.3-7.5 84.8-12.6 4.2-1.1 7.6 3.8 5.4 7.9z" fill="#bfbfbf" p-id="22855"></path><path d="M591.5 516.3c0 205-108.9 336.4-110 337.7-1.1 1.3-1.8 2.8-2.3 4.3-65.5-2.7-105.1-10.3-128.5-17.4-2.4-0.8-4.5-1.5-6.5-2.1-12.8-4.3-21.4-16.3-21.4-29.7V219.2c0-11.9 4.3-23.4 12-33h211.3c-12.2 14.5-25.1 39.1-25.1 77.7 0 32.4 13.1 59.7 28.2 91.2 19.9 41.3 42.3 87.8 42.3 161.2z" fill="#bfbfbf" p-id="22856"></path><path d="M722.4 219.9V809c0 13.4-8.6 25.4-21.4 29.7-2.5 0.9-5.2 1.7-8.1 2.6-0.2 0.1-0.3 0.1-0.4 0.1-18.4 5.4-45.9 10.9-86.9 14.4 12.7-31 50.3-132.1 50.3-244.7 0-102.2-25.2-162.7-47.6-216.1-17.1-40.7-31.8-75.9-31.8-122.2 0-46.4 41.5-82.9 45.8-86.5h86.8c8.6 9.5 13.3 21.2 13.3 33.6zM711.7 164.8H352.9c9.8-13.7 18.1-30.6 20.5-49.9h317c2.3 19.4 11.1 36.3 21.3 49.9z" fill="#bfbfbf" p-id="22857"></path><path d="M512 930.6c-63.5 0-116.2-5.1-156.8-15-5.8-1.4-9.3-7.2-7.9-13 1.4-5.8 7.3-9.3 13-7.9 38.9 9.6 89.9 14.4 151.6 14.4 60.9 0 111.4-4.7 150.1-14 5.9-1.3 11.6 2.2 13 7.9 1.4 5.8-2.2 11.6-7.9 13-40.3 9.7-92.5 14.6-155.1 14.6zM700.1 114.8H320.9c-5.9 0-10.7-4.8-10.7-10.7 0-5.9 4.8-10.7 10.7-10.7h379.2c5.9 0 10.7 4.8 10.7 10.7 0.1 5.9-4.7 10.7-10.7 10.7z" fill="#bfbfbf" p-id="22858"></path><path d="M512 880.7c-109.6 0-167.1-11.8-196.1-21.8-21.4-7.3-35.8-27.4-35.8-50V219.2c0-18.9 7.5-37.1 21-51.2 13.8-14.3 30.2-37 30.2-63.9 0-5.9 4.8-10.7 10.7-10.7 5.9 0 10.7 4.8 10.7 10.7 0 34-19.7 61.6-36.2 78.8-9.7 10.1-15 22.9-15 36.3V809c0 13.4 8.6 25.4 21.3 29.7 27.4 9.4 82.5 20.6 189.2 20.6s161.7-11.2 189.1-20.6c12.8-4.4 21.3-16.3 21.3-29.7V280c0-5.9 4.8-10.7 10.7-10.7s10.7 4.8 10.7 10.7v529c0 22.6-14.4 42.7-35.8 50-28.9 9.9-86.4 21.7-196 21.7zM733.2 230.6c-5.9 0-10.7-4.8-10.7-10.7 0-13.7-5.6-26.7-15.8-36.7-17.5-17.1-38.3-44.7-38.3-79.1 0-5.9 4.8-10.7 10.7-10.7 5.9 0 10.7 4.8 10.7 10.7 0 26.9 17.3 49.5 31.9 63.7 14.4 14.1 22.3 32.6 22.3 52-0.1 6-4.9 10.8-10.8 10.8z" fill="#bfbfbf" p-id="22859"></path><path d="M664.6 916.3c-1.8 0-3.7-0.5-5.4-1.4-5.1-3-6.9-9.5-3.9-14.7l31.1-53.9c3-5.1 9.5-6.9 14.7-3.9 5.1 3 6.9 9.5 3.9 14.7L673.9 911c-2 3.4-5.6 5.3-9.3 5.3zM357.8 915.9c-3.7 0-7.3-1.9-9.3-5.4l-31.1-53.9c-3-5.1-1.2-11.7 3.9-14.7s11.7-1.2 14.7 3.9l31.1 53.9c3 5.1 1.2 11.7-3.9 14.7-1.7 1-3.6 1.5-5.4 1.5zM468.4 871.5c-2.5 0-4.9-0.8-6.9-2.5-4.5-3.8-5.1-10.6-1.3-15.1 1.1-1.3 110-132.7 110-337.7 0-73.3-22.4-119.9-42.2-161.1-15.2-31.5-28.2-58.8-28.2-91.2 0-71.8 44.7-94.9 46.6-95.9 5.3-2.6 11.7-0.5 14.4 4.8 2.6 5.3 0.5 11.7-4.7 14.4-1.6 0.8-34.8 19-34.8 76.7 0 27.6 12.1 52.8 26.1 81.9 19.7 41.1 44.3 92.2 44.3 170.4 0 213.2-110.4 346-115.1 351.5-2.2 2.6-5.2 3.8-8.2 3.8z" fill="#bfbfbf" p-id="22860"></path><path d="M591.8 871.5c-1.5 0-3-0.3-4.4-1-5.4-2.4-7.8-8.8-5.3-14.2 0.5-1.2 52.6-117.6 52.6-245.5 0-97.8-24.4-156.2-46-207.7-17.2-41-33.4-79.8-33.4-130.4 0-59 51.8-101.7 54-103.5 4.6-3.7 11.3-3.1 15.1 1.6 3.7 4.6 3.1 11.4-1.5 15.1-0.5 0.4-46.1 38.2-46.1 86.9 0 46.3 14.7 81.4 31.7 122.1 22.3 53.4 47.6 113.9 47.6 216 0 132.7-52.3 249.4-54.5 254.3-1.8 4-5.7 6.3-9.8 6.3z" fill="#bfbfbf" p-id="22861"></path><path d="M714.1 186.2H308.8c-5.9 0-10.7-4.8-10.7-10.7s4.8-10.7 10.7-10.7h405.3c5.9 0 10.7 4.8 10.7 10.7s-4.7 10.7-10.7 10.7z" fill="#bfbfbf" p-id="22862"></path></svg>