<?xml version="1.0" standalone="no"?><!DOCTYPE svg PUBLIC "-//W3C//DTD SVG 1.1//EN" "http://www.w3.org/Graphics/SVG/1.1/DTD/svg11.dtd"><svg t="1706180669041" class="icon" viewBox="0 0 1024 1024" version="1.1" xmlns="http://www.w3.org/2000/svg" p-id="2731" xmlns:xlink="http://www.w3.org/1999/xlink" width="200" height="200"><path d="M314.136 272c-9.52 0.4-16.376 7.864-15.992 16.696l27.832 640A16 16 0 0 0 341.96 944h340.08a16 16 0 0 0 15.984-15.304l27.832-640c0.008-9.536-7.152-16.696-15.992-16.696H314.136z m0-32h395.728a48 48 0 0 1 48 48c0 0.464-9.28 214.488-27.864 642.08a48 48 0 0 1-47.96 45.92h-340.08a48 48 0 0 1-47.96-45.92l-27.824-640A48 48 0 0 1 314.136 240z" fill="#5A5A68" p-id="2732"></path><path d="M296 912v-32h424v32zM408 256h-32c0-48.6-39.4-88-88-88s-88 39.4-88 88 39.4 88 88 88v32c-66.272 0-120-53.728-120-120 0-66.272 53.728-120 120-120 66.272 0 120 53.728 120 120zM639.872 402.032a16 16 0 1 1-31.744-4.064l32.84-256.144A80 80 0 0 1 720.32 72H784a16 16 0 1 1 0 32h-63.68a48 48 0 0 0-47.608 41.896l-32.84 256.136z" fill="#5A5A68" p-id="2733"></path><path d="M290.864 399.744l-5.728-31.488C344.704 357.424 398.976 352 448 352c52.952 0 92.504 8.576 153.304 28.888 1.184 0.4 18.936 6.368 24.016 8.048 8.904 2.952 16.168 5.248 23.112 7.296 29.872 8.8 53.832 12.68 79 11.776L728.56 440c-29.048 1.04-56.264-3.36-89.184-13.064-7.32-2.16-14.904-4.56-24.112-7.6-5.176-1.72-23-7.712-24.112-8.08C533.344 391.92 496.8 384 448 384c-46.984 0-99.368 5.24-157.136 15.744zM276 152h24v208.616h-24z" fill="#5A5A68" p-id="2734"></path><path d="M372.336 193.76l12 20.784-180.672 104.312-12-20.784z" fill="#5A5A68" p-id="2735"></path><path d="M303.328 251.304l-12 20.784-99.664-57.544 12-20.784z" fill="#5A5A68" p-id="2736"></path></svg>