<?xml version="1.0" standalone="no"?><!DOCTYPE svg PUBLIC "-//W3C//DTD SVG 1.1//EN" "http://www.w3.org/Graphics/SVG/1.1/DTD/svg11.dtd"><svg t="1706173459309" class="icon" viewBox="0 0 1024 1024" version="1.1" xmlns="http://www.w3.org/2000/svg" p-id="10463" xmlns:xlink="http://www.w3.org/1999/xlink" width="200" height="200"><path d="M515.528 377.792c-125.176 0-258.208-19.624-258.208-56s133.032-56 258.208-56c125.168 0 258.208 19.624 258.208 56s-133.032 56-258.208 56z m0-104c-147.456 0-250.208 25.296-250.208 48s102.76 48 250.208 48 250.208-25.296 250.208-48c0.008-22.696-102.752-48-250.208-48z" p-id="10464"></path><path d="M515.528 917.792c-127.088 0-191.528-18.848-191.528-56l-66.648-539.512c-0.032-36.864 133-56.488 258.184-56.488 125.168 0 258.208 19.624 258.208 56l-73.784 540.536c0.04 37.144-60.304 55.464-184.432 55.464z m0-644c-147.456 0-250.208 25.296-250.208 48l66.648 539.512c0.032 18.424 23.872 48.496 183.56 48.496 117.096 0 176.472-16.152 176.472-48l73.784-540.544c-0.04-22.16-102.8-47.464-250.256-47.464z" p-id="10465"></path><path d="M515.528 917.792c-127.088 0-191.528-18.848-191.528-56l-37.44-281.496 1.48-1.408c2.456-2.336 62.048-57.104 231.176-57.104 154.424 0 220.88 54.616 223.632 56.944l1.728 1.456-44.616 282.224c0.04 37.064-60.304 55.384-184.432 55.384zM295.04 583.408l36.92 277.856c0.032 18.456 23.88 48.52 183.568 48.52 117.096 0 176.472-16.152 176.472-48l43.944-278.28c-11.4-8.448-78.952-53.72-216.728-53.72-151.6 0.008-214.064 45.368-224.176 53.624z" p-id="10466"></path><path d="M519.224 605.8a16 16 0 0 1-15.48-20.072l88.416-336a16.008 16.008 0 0 1 30.952 8.144l-88.424 336a16 16 0 0 1-15.464 11.928z" p-id="10467"></path><path d="M615.016 282.68a24.032 24.032 0 0 1-22.936-31.096l58.944-190.672A24 24 0 0 1 673.952 44h147.368c13.256 0 24 10.744 24 24s-12.064 22.68-25.32 22.68h-128L637.936 265.76a24 24 0 0 1-22.92 16.92z" p-id="10468"></path><path d="M424 757.792m-24 0a24 24 0 1 0 48 0 24 24 0 1 0-48 0Z" p-id="10469"></path><path d="M561.32 729.792m-20 0a20 20 0 1 0 40 0 20 20 0 1 0-40 0Z" p-id="10470"></path><path d="M525.32 821.792m-16 0a16 16 0 1 0 32 0 16 16 0 1 0-32 0Z" p-id="10471"></path><path d="M515.528 937.792c-90.056 0-209.544-7.744-211.512-74.328l-66.52-538.728a24.128 24.128 0 0 1-0.176-2.944c0-70.52 212.944-76 278.208-76s278.208 5.48 278.208 76c0 1.088-0.072 2.168-0.216 3.248l-73.544 538.584c-1.976 65.688-110.12 74.168-204.448 74.168zM286.04 326.128l65.784 532.728c0.12 0.968 0.184 1.952 0.184 2.936 0 0.28 12.184 28 163.528 28 152.208 0 156.472-27.72 156.472-28 0-1.088 0.072-2.168 0.216-3.248l72.72-532.48c-17.928-12.144-97.472-32.272-229.408-32.272-132.16 0-211.744 20.2-229.496 32.336z" p-id="10472"></path><path d="M515.528 389.792c-27.656 0-270.208-1.904-270.208-68a16 16 0 0 1 31.944-1.336c9.6 13.664 95.64 37.336 238.264 37.336 142.632 0 228.664-23.664 238.264-37.336a16 16 0 0 1 31.944 1.336c0.008 66.096-242.552 68-270.208 68zM740.264 581.792a16 16 0 0 1-15.736-13.088c-11.92-11.232-92.52-30.912-214.104-30.912-121.56 0-189.48 19.576-199.248 30.192a16 16 0 0 1-31.848-2.192c0-57.112 192.512-60 231.104-60 25.168 0 245.832 1.688 245.832 60a16 16 0 0 1-16 16z" p-id="10473"></path><path d="M525.16 641.792c-25.16 0-245.832-1.688-245.832-60a16 16 0 0 1 31.736-2.912c11.92 11.232 92.52 30.912 214.104 30.912 121.56 0 189.48-19.576 199.248-30.192a16 16 0 0 1 31.848 2.192c0 57.112-192.504 60-231.104 60z" p-id="10474"></path></svg>