<?xml version="1.0" standalone="no"?><!DOCTYPE svg PUBLIC "-//W3C//DTD SVG 1.1//EN" "http://www.w3.org/Graphics/SVG/1.1/DTD/svg11.dtd"><svg t="1706173539811" class="icon" viewBox="0 0 1234 1024" version="1.1" xmlns="http://www.w3.org/2000/svg" p-id="16328" xmlns:xlink="http://www.w3.org/1999/xlink" width="241.015625" height="200"><path d="M1219.282864 26.485089c-49.701789-49.701789-298.210736-32.306163-486.580516 76.540756-198.807157 113.32008-211.729622 378.727634-212.226641 390.159046a37.77336 37.77336 0 0 0 35.785289 38.767395A36.779324 36.779324 0 0 0 596.519445 497.658052c0-2.485089 12.425447-235.586481 174.45328-328.031809a675.944334 675.944334 0 0 1 389.662028-90.954275A614.314115 614.314115 0 0 1 899.700359 408.194831a690.357853 690.357853 0 0 1-188.866799 63.61829C795.326602 367.439364 914.113878 249.149105 915.604932 244.675944a37.276342 37.276342 0 1 0-52.683897-52.683896c-9.44334 9.44334-225.646123 226.640159-283.300198 340.954274a591.94831 591.94831 0 0 0-49.70179 149.105368 276.838966 276.838966 0 0 0-32.803181-25.347913A333.001988 333.001988 0 0 0 281.907119 597.06163H171.569147a37.276342 37.276342 0 1 0 0 74.552684h110.337972a294.73161 294.73161 0 0 1 103.379722 13.419483 410.536779 410.536779 0 0 1-60.139165 24.353877 259.940358 259.940358 0 0 1-192.345925-25.347913 99.403579 99.403579 0 0 0-49.701789-9.940357 176.441352 176.441352 0 0 1 10.437376-22.862823 252.485089 252.485089 0 0 1 214.711729-117.296223c90.457256 0 163.021869 94.4334 163.518887 95.427435l59.642147-44.73161c-3.479125-4.970179-95.427435-125.248509-223.161034-125.248509a323.558648 323.558648 0 0 0-280.815109 156.560636c-27.335984 53.677932-33.797217 91.94831-21.37177 114.314115l10.437376 18.389662h19.880716a120.27833 120.27833 0 0 0 33.300199 0 52.683897 52.683897 0 0 1 29.821073 0 375.745527 375.745527 0 0 0 165.506959 42.743539A262.922465 262.922465 0 0 0 348.010499 778.473161a402.584493 402.584493 0 0 0 112.326043-54.17495 141.650099 141.650099 0 0 1 59.14513 99.403578v161.033797a37.276342 37.276342 0 0 0 74.552683 0v-214.214711a479.125249 479.125249 0 0 1 49.70179-204.274354 64.115308 64.115308 0 0 1 4.473161-7.952286 920.477137 920.477137 0 0 0 284.294234-86.481114c174.45328-99.403579 286.779324-306.66004 298.210736-389.16501a65.109344 65.109344 0 0 0-11.431412-56.163022z" p-id="16329"></path></svg>