<?xml version="1.0" standalone="no"?><!DOCTYPE svg PUBLIC "-//W3C//DTD SVG 1.1//EN" "http://www.w3.org/Graphics/SVG/1.1/DTD/svg11.dtd"><svg t="1706173562527" class="icon" viewBox="0 0 1024 1024" version="1.1" xmlns="http://www.w3.org/2000/svg" p-id="17069" xmlns:xlink="http://www.w3.org/1999/xlink" width="200" height="200"><path d="M511.993856 1023.97952a890.998713 890.998713 0 0 1-307.193856-52.427751v-70.927648a884.035653 884.035653 0 0 0 614.387712 0v70.927648A890.998713 890.998713 0 0 1 511.993856 1023.97952z m68.265301-136.530602h-136.530602C292.930504 887.448918 204.8 765.185763 204.8 614.387712V341.326507h614.387712v273.061205c0 150.66152-88.130504 273.061205-238.928555 273.061206zM750.922411 409.591808H273.065301v68.265302h477.85711V409.591808z m0 136.530603H273.065301v68.265301c0 113.115604 57.547649 204.795904 170.663254 204.795904h136.530602C693.374762 819.183616 750.922411 727.503317 750.922411 614.387712V546.122411zM648.524459 273.061205a34.132651 34.132651 0 0 1-34.132651-34.13265v-136.530603a34.132651 34.132651 0 0 1 68.265302 0v136.530603a34.132651 34.132651 0 0 1-34.132651 34.13265z m-136.530603 0a34.132651 34.132651 0 0 1-34.132651-34.13265v-204.795904a34.132651 34.132651 0 0 1 68.265302 0v204.795904a34.132651 34.132651 0 0 1-34.132651 34.13265z m-136.530603 0a34.132651 34.132651 0 0 1-34.13265-34.13265v-136.530603a34.132651 34.132651 0 0 1 68.265301 0v136.530603a34.132651 34.132651 0 0 1-34.132651 34.13265z" fill="#3C4042" p-id="17070"></path></svg>