<?xml version="1.0" standalone="no"?><!DOCTYPE svg PUBLIC "-//W3C//DTD SVG 1.1//EN" "http://www.w3.org/Graphics/SVG/1.1/DTD/svg11.dtd"><svg t="1706173550476" class="icon" viewBox="0 0 1024 1024" version="1.1" xmlns="http://www.w3.org/2000/svg" p-id="16772" xmlns:xlink="http://www.w3.org/1999/xlink" width="200" height="200"><path d="M682.2 477.6H730c47.4 0 80 47.6 63 91.8-10 26-35 43.2-63 43.2h-86.6 141.8c27.8 0 52.8-17.2 63-43.2 17-44.2-15.6-91.8-63-91.8h-47.8" fill="#D1DBC6" p-id="16773"></path><path d="M785.2 620.8h-141.8v-16.6H730c24.2 0 46.4-15.2 55.2-37.8 7.2-18.4 4.8-38.4-6.4-54.8S749.8 486 730 486h-47.8v-16.6H730c2.6 0 5 0.2 7.4 0.4v-0.4h47.8c25 0 48.4 12.2 62.4 32.8 14.2 20.6 17.2 46.8 8.2 70.2-11.2 29-39.6 48.4-70.6 48.4z m-8-16.6h8c24.2 0 46.4-15.2 55.2-37.8 7.2-18.4 4.8-38.4-6.4-54.8S805 486 785.2 486h-7.8c5.8 4.6 10.8 10 15.2 16.2 14.2 20.6 17.2 46.8 8.2 70.2-5.2 12.6-13.4 23.6-23.6 31.8z" fill="#434244" p-id="16774"></path><path d="M542.4 717.6h-362s59.8 74.8 194.4 74.8H636c134.6 0 194.4-74.8 194.4-74.8h-288zM467.6 477.6H205c0 170.2 154.6 240 154.6 240h215.6s154.6-69.8 154.6-240H467.6z" fill="#D1DBC6" p-id="16775"></path><path d="M663.4 532.6H241c-15.2 0-27.6-12.4-27.6-27.6s12.4-27.6 27.6-27.6h422.4c15.2 0 27.6 12.4 27.6 27.6s-12.2 27.6-27.6 27.6z" fill="#FFFFFF" p-id="16776"></path><path d="M577 725.8H358l-1.6-0.8c-1.6-0.8-159.6-74-159.6-247.4v-8.4h541.6v8.4c0 173.6-158 246.8-159.6 247.4l-1.8 0.8z m-215.4-16.6h211.8c15.6-7.6 143.4-75.4 148.2-223.2h-508c4.6 147.8 132.4 215.6 148 223.2z" fill="#434244" p-id="16777"></path><path d="M668.6 765.4H262c-15.2 0-27.6-12.4-27.6-27.6S246.6 710 262 710h406.6c15.2 0 27.6 12.4 27.6 27.6s-12.2 27.8-27.6 27.8z" fill="#FFFFFF" p-id="16778"></path><path d="M636 800.6H374.8c-137 0-198.4-74.8-201-78l-10.8-13.6h684.6l-10.8 13.6c-2.4 3.2-63.8 78-200.8 78z m-435.4-74.8c24.2 20.8 80.8 58.2 174.2 58.2H636c93.4 0 150-37.4 174.2-58.2H200.6zM464 414.6c-16-14.8-17-39.8-2.2-55.8l1.8-2c8.6-9.2 8-23.8-1.2-32.4l-1-1c-16-14.8-17-39.8-2.2-55.8 8.6-9.2 8-23.8-1.2-32.4l11.2-12.2c16 14.8 17 39.8 2.2 55.8-8.6 9.2-8 23.8 1.2 32.4l1 1c16 14.8 17 39.8 2.2 55.8l-1.8 2c-8.6 9.2-8 23.8 1.2 32.4l-11.2 12.2zM547.2 414.6c-16-14.8-17-39.8-2.2-55.8l1.8-2c8.6-9.2 8-23.8-1.2-32.4l-1-1 11.4-12.2 1 1c16 14.8 17 39.8 2.2 55.8l-1.8 2c-8.6 9.2-8 23.8 1.2 32.4l-11.4 12.2zM379.6 414.6c-16-14.8-17-39.8-2.2-55.8l1.8-2c8.6-9.2 8-23.8-1.2-32.4l-1-1 11.4-12.2 1 1c16 14.8 17 39.8 2.2 55.8l-1.8 2c-8.6 9.2-8 23.8 1.2 32.4l-11.4 12.2z" fill="#434244" p-id="16779"></path><path d="M338 549.2h-52.4l-30.8 59.2v67.8h114v-67.8z" fill="#F9D658" p-id="16780"></path><path d="M377 684.4h-130.4v-78l34-65.6h62.4l34 65.6v78z m-113.8-16.6h97.2v-57.4l-27.4-53h-42.2l-27.4 53v57.4z" fill="#434244" p-id="16781"></path><path d="M311.8 604.6c-11 0-20-9-20-20s9-20 20-20 20 9 20 20-9 20-20 20z m0-23.6c-1.8 0-3.4 1.6-3.4 3.4 0 1.8 1.6 3.4 3.4 3.4 1.8 0 3.4-1.6 3.4-3.4 0-1.8-1.6-3.4-3.4-3.4z" fill="#434244" p-id="16782"></path><path d="M303.4 452h16.6v120.8h-16.6z" fill="#434244" p-id="16783"></path></svg>