<?xml version="1.0" standalone="no"?><!DOCTYPE svg PUBLIC "-//W3C//DTD SVG 1.1//EN" "http://www.w3.org/Graphics/SVG/1.1/DTD/svg11.dtd"><svg t="1706173521827" class="icon" viewBox="0 0 1820 1024" version="1.1" xmlns="http://www.w3.org/2000/svg" p-id="16188" xmlns:xlink="http://www.w3.org/1999/xlink" width="355.46875" height="200"><path d="M1183.75491491 390.51055547v-54.05531484H603.91223608v374.90135151c-0.02454833 34.15893348 13.37881356 66.95543661 37.31338794 91.31960613h-108.27019445v25.6652284c0.06137018 52.27556551 42.41943008 94.64589893 94.69499428 94.69499559h532.35402849c52.27556551-0.06137018 94.64589893-42.41943008 94.6949956-94.69499559v-25.64068007h-108.2824693a130.19794718 130.19794718 0 0 0 37.31338794-91.31960613V652.78439377h21.18516673c48.92472439-0.04909666 88.57019845-39.69457071 88.6192951-88.6192964V390.51055547h-109.7799135z m-23.75046257 493.2731647H627.65042385c-25.35837492-0.03682185-47.46410204-17.24516699-53.73618786-41.80572315h639.81412938c-6.25981231 24.56055486-28.36553943 41.7689-53.72391303 41.80572315zM734.52136615 802.6884731c-50.40989507-0.07364499-91.25823596-40.90971107-91.31960614-91.31960615V375.73249104h501.28817803v335.63637591c-0.06137018 50.40989507-40.90971107 91.25823596-91.31960615 91.31960615H734.52136615z m519.76076019-238.53564924c-0.02454833 27.23631757-22.10572713 49.31749766-49.34204471 49.34204468h-19.49133586V429.78780589h68.83338057v134.36501797zM727.21825309 156.74954656h39.27725042v135.15056322h-39.27725042V156.74954656z m148.66439193-54.05531484h39.27724912v135.13828841h-39.27724912v-135.13828841z m148.65211711 54.05531484h39.27725043v135.15056322h-39.27725043V156.74954656z m0 0" p-id="16189"></path><path d="M1001.99943992 420.49628204c-16.45962305 17.28199013-77.33936047 37.41158128-107.32508576 49.84528479-27.38360754 11.35357963-105.90128523 52.50877398-103.55692431 131.70152878 2.35663443 79.1927561 45.19338611 95.41916935 38.52852701 122.36090827 0 0 14.11526213-7.69588633 30.55033555-16.07912457 54.81631177-27.97276617 73.65711756-17.18379681 108.89617622-47.43955371 35.44771882-30.4275952 72.46652683-65.51936259 32.90697129-240.38904356z m-7.05763108 176.07254651c-14.88853255 52.25101718-62.25444128 63.96054693-95.79966781 75.35094969-14.59395261 4.95875344-28.88105305 12.5932683-39.6822972 19.11083742 1.64473548-18.92672431 14.31164747-43.49955398 43.81868226-52.65606396 28.39008775-8.81283338 44.99699948-25.71432503 49.51388428-30.82036718-9.27925033 8.30959327-57.71300943 21.83569679-63.61687159 19.56498087-6.27208582-2.40573109-2.97034267-31.16404247 19.58952919-34.57625508 32.91924479-4.97102697 55.06179505-27.48180086 55.06179374-27.48180086s-59.37001842 24.2659762-55.06179374 12.21277115c8.55507657-23.92229959 49.57525446-65.62982943 49.57525317-65.62983072-30.55033554 10.05252077-85.21935861 90.95138251-91.87194293 96.99025983-6.66485779 6.02660253-10.40847088-46.33488148-16.12821995-57.22204413-10.80124415-20.58373329 6.333456 74.50403427 5.94068403 92.59611667-0.29457995 13.5874737-11.63588476 39.87868255-17.2697166 52.11600202-4.578255-11.27993463-17.71158525-15.44086932-28.16915278-59.3577449-23.76273611-99.75194107 52.09145238-132.65891233 97.14982333-151.15604152 45.04609614-18.48485567 83.82010644-36.98198615 83.82010644-36.98198616s18.01843871 95.67692617 3.12990616 147.94021686z m-40.87288794 9.50018528s-0.42959511 0.54006194-1.26423701 1.49744551c0.57688509-0.52778843 1.00647891-1.01875372 1.26423701-1.49744551z m0 0" p-id="16190"></path></svg>